<svg xmlns="http://www.w3.org/2000/svg" xmlns:xlink="http://www.w3.org/1999/xlink" width="1080" zoomAndPan="magnify" viewBox="0 0 810 809.999993" height="1080" preserveAspectRatio="xMidYMid meet" version="1.2"><defs><clipPath id="94d329eedc"><path d="M 86 3 L 727.652344 3 L 727.652344 451 L 86 451 Z M 86 3 "/></clipPath><clipPath id="ea9879dfa7"><path d="M 628 516 L 727.652344 516 L 727.652344 630 L 628 630 Z M 628 516 "/></clipPath><clipPath id="fcf0bccaca"><path d="M 82.652344 516 L 200 516 L 200 630 L 82.652344 630 Z M 82.652344 516 "/></clipPath></defs><g id="00abf7368d"><g clip-rule="nonzero" clip-path="url(#94d329eedc)"><path style=" stroke:none;fill-rule:nonzero;fill:#000000;fill-opacity:1;" d="M 679.167969 295.175781 C 675.316406 302.882812 668.40625 313.644531 662.027344 320.019531 L 150.800781 320.019531 C 147.082031 314.972656 138.179688 303.414062 134.328125 295.175781 L 679.167969 295.175781 M 641.039062 346.0625 C 634.660156 354.964844 625.09375 363.335938 614.867188 369.050781 L 196.105469 369.050781 C 187.734375 363.335938 179.5 354.964844 171.792969 346.0625 L 641.039062 346.0625 M 583.113281 393.230469 C 537.808594 426.980469 488.253906 444.117188 450.65625 446.644531 C 450.65625 432.691406 450.65625 413.558594 454.507812 393.230469 L 583.113281 393.230469 M 726.863281 128.425781 C 730.714844 169.75 717.296875 220.105469 691.921875 270.992188 L 503.53125 270.992188 C 510.441406 258.902344 519.476562 247.476562 529.570312 235.917969 C 584.308594 171.742188 668.40625 132.148438 726.863281 128.425781 M 361.511719 446.644531 C 325.242188 444.117188 275.554688 426.980469 229.851562 393.230469 L 359.648438 393.230469 C 362.175781 413.558594 362.175781 432.691406 361.511719 446.644531 M 406.679688 450.496094 C 392.066406 436.546875 379.3125 417.414062 366.027344 393.230469 L 446.804688 393.230469 C 434.050781 417.414062 420.097656 436.546875 406.679688 450.496094 M 310.625 270.992188 L 121.574219 270.992188 C 96.066406 220.105469 83.445312 169.75 87.164062 128.425781 C 145.089844 132.148438 229.851562 171.742188 284.585938 235.917969 C 294.019531 247.476562 303.585938 258.902344 310.625 270.992188 M 488.253906 270.992188 L 325.242188 270.992188 C 322.714844 256.378906 322.714844 242.292969 322.714844 225.816406 C 322.714844 136.664062 362.175781 44.320312 406.679688 3 C 450.65625 44.320312 490.777344 136.664062 490.777344 225.816406 C 490.777344 242.292969 489.449219 256.378906 488.253906 270.992188 "/></g><g clip-rule="nonzero" clip-path="url(#ea9879dfa7)"><path style=" stroke:none;fill-rule:nonzero;fill:#000000;fill-opacity:1;" d="M 678.503906 630 C 705.207031 630 727.527344 619.238281 727.527344 592.53125 C 727.527344 577.25 716.765625 567.019531 699.496094 562.503906 C 681.691406 558.117188 658.839844 558.78125 658.839844 547.222656 C 660.035156 539.648438 667.078125 537.65625 677.839844 537.65625 C 694.445312 537.65625 695.109375 546.558594 695.773438 552.40625 L 723.140625 552.40625 C 721.148438 531.414062 704.011719 516.664062 676.644531 516.664062 C 647.945312 516.664062 631.472656 531.945312 631.472656 551.742188 C 631.472656 563.167969 637.183594 573.398438 646.75 578.449219 C 653.660156 581.636719 663.226562 584.160156 674.78125 586.152344 C 686.738281 587.351562 697.632812 588.679688 698.296875 596.917969 C 698.296875 602.628906 692.585938 609.671875 679.832031 609.671875 C 661.363281 609.671875 657.511719 599.441406 657.511719 592.53125 L 628.949219 592.53125 C 629.480469 614.71875 647.945312 630 678.503906 630 "/></g><path style=" stroke:none;fill-rule:evenodd;fill:#000000;fill-opacity:1;" d="M 558.800781 630 C 571.023438 630 581.785156 626.148438 590.6875 620.433594 L 590.6875 627.476562 L 618.054688 627.476562 L 618.054688 517.992188 L 590.6875 517.992188 L 590.6875 526.230469 C 581.785156 519.851562 571.023438 516.664062 558.800781 516.664062 C 527.710938 516.664062 501.539062 541.511719 501.539062 573.398438 C 501.539062 604.621094 527.710938 630 558.800781 630 Z M 528.375 573.398438 C 528.375 556.125 542.992188 541.511719 560.128906 541.511719 C 576.734375 541.511719 590.6875 556.125 590.6875 573.398438 C 590.6875 589.875 576.734375 604.621094 560.128906 604.621094 C 542.992188 604.621094 528.375 589.875 528.375 573.398438 "/><path style=" stroke:none;fill-rule:evenodd;fill:#000000;fill-opacity:1;" d="M 465.933594 480.390625 L 465.933594 526.230469 C 456.367188 519.851562 445.609375 516.664062 433.519531 516.664062 C 402.296875 516.664062 376.789062 541.511719 376.789062 573.398438 C 376.789062 604.621094 402.296875 630 433.519531 630 C 445.609375 630 457.035156 626.148438 465.933594 620.433594 L 465.933594 627.476562 L 492.636719 627.476562 L 492.636719 480.390625 Z M 402.960938 573.398438 C 402.960938 556.125 417.574219 541.511719 434.050781 541.511719 C 451.320312 541.511719 465.933594 556.125 465.933594 573.398438 C 465.933594 589.875 451.320312 604.621094 434.050781 604.621094 C 417.574219 604.621094 402.960938 589.875 402.960938 573.398438 "/><path style=" stroke:none;fill-rule:evenodd;fill:#000000;fill-opacity:1;" d="M 338.660156 627.476562 L 365.363281 627.476562 L 365.363281 517.992188 L 338.660156 517.992188 Z M 338.660156 507.761719 L 365.363281 507.761719 L 365.363281 480.390625 L 338.660156 480.390625 L 338.660156 507.761719 "/><path style=" stroke:none;fill-rule:evenodd;fill:#000000;fill-opacity:1;" d="M 265.457031 630 C 277.546875 630 288.308594 626.148438 297.871094 620.433594 L 297.871094 627.476562 L 325.242188 627.476562 L 325.242188 480.390625 L 297.871094 480.390625 L 297.871094 526.230469 C 288.308594 519.851562 277.546875 516.664062 265.457031 516.664062 C 234.234375 516.664062 208.195312 541.511719 208.195312 573.398438 C 208.195312 604.621094 234.234375 630 265.457031 630 Z M 234.234375 573.398438 C 234.234375 556.125 248.847656 541.511719 266.652344 541.511719 C 283.257812 541.511719 297.871094 556.125 297.871094 573.398438 C 297.871094 589.875 283.257812 604.621094 266.652344 604.621094 C 248.847656 604.621094 234.234375 589.875 234.234375 573.398438 "/><g clip-rule="nonzero" clip-path="url(#fcf0bccaca)"><path style=" stroke:none;fill-rule:evenodd;fill:#000000;fill-opacity:1;" d="M 139.375 630 C 152.128906 630 162.890625 626.148438 172.457031 620.433594 L 172.457031 627.476562 L 199.160156 627.476562 L 199.160156 517.992188 L 172.457031 517.992188 L 172.457031 526.230469 C 162.890625 519.851562 151.464844 516.664062 139.375 516.664062 C 108.15625 516.664062 82.78125 541.511719 82.78125 573.398438 C 82.78125 604.621094 108.15625 630 139.375 630 Z M 108.820312 573.398438 C 108.820312 556.125 123.433594 541.511719 140.039062 541.511719 C 157.84375 541.511719 172.457031 556.125 172.457031 573.398438 C 172.457031 589.875 157.84375 604.621094 140.039062 604.621094 C 123.433594 604.621094 108.820312 589.875 108.820312 573.398438 "/></g><g style="fill:#000000;fill-opacity:1;"><g transform="translate(30.603517, 771.142829)"><path style="stroke:none" d="M 4 -32.203125 L 32.203125 -32.203125 C 32.203125 -30.203125 32.765625 -28.097656 33.890625 -25.890625 C 35.023438 -23.691406 36.957031 -21.894531 39.6875 -20.5 C 42.425781 -19.101562 46.265625 -18.335938 51.203125 -18.203125 C 56.398438 -18.203125 60.234375 -19.203125 62.703125 -21.203125 C 65.171875 -23.203125 66.40625 -25.398438 66.40625 -27.796875 C 66.40625 -30.867188 64.9375 -33.070312 62 -34.40625 C 59.0625 -35.738281 55.289062 -36.738281 50.6875 -37.40625 C 46.09375 -38.070312 41.226562 -38.867188 36.09375 -39.796875 C 30.96875 -40.734375 26.101562 -42.234375 21.5 -44.296875 C 16.894531 -46.367188 13.125 -49.46875 10.1875 -53.59375 C 7.257812 -57.726562 5.796875 -63.394531 5.796875 -70.59375 C 5.796875 -76.863281 7.53125 -82.5 11 -87.5 C 14.46875 -92.5 19.367188 -96.460938 25.703125 -99.390625 C 32.035156 -102.328125 39.535156 -103.796875 48.203125 -103.796875 C 61.265625 -103.796875 71.660156 -100.695312 79.390625 -94.5 C 87.128906 -88.300781 91.398438 -80.066406 92.203125 -69.796875 L 64.40625 -69.796875 C 64.269531 -73.535156 63.164062 -76.632812 61.09375 -79.09375 C 59.03125 -81.5625 54.863281 -82.796875 48.59375 -82.796875 C 44.59375 -82.796875 41.160156 -82.09375 38.296875 -80.6875 C 35.429688 -79.289062 34 -76.992188 34 -73.796875 C 34 -70.734375 35.5 -68.46875 38.5 -67 C 41.5 -65.53125 45.332031 -64.394531 50 -63.59375 C 54.664062 -62.800781 59.664062 -61.90625 65 -60.90625 C 70.332031 -59.90625 75.332031 -58.4375 80 -56.5 C 84.664062 -54.5625 88.5 -51.726562 91.5 -48 C 94.5 -44.269531 96 -39.132812 96 -32.59375 C 96 -24.46875 93.929688 -17.867188 89.796875 -12.796875 C 85.660156 -7.734375 80.125 -4 73.1875 -1.59375 C 66.257812 0.800781 58.460938 2 49.796875 2 C 40.460938 2 32.394531 0.5 25.59375 -2.5 C 18.800781 -5.5 13.570312 -9.566406 9.90625 -14.703125 C 6.238281 -19.835938 4.269531 -25.671875 4 -32.203125 Z M 4 -32.203125 "/></g></g><g style="fill:#000000;fill-opacity:1;"><g transform="translate(130.000886, 771.142829)"><path style="stroke:none" d="M 33.40625 -137 L 33.40625 -92.203125 C 35.40625 -94.867188 39.003906 -97.566406 44.203125 -100.296875 C 49.398438 -103.035156 55.597656 -104.40625 62.796875 -104.40625 C 70.796875 -104.40625 77.757812 -102.671875 83.6875 -99.203125 C 89.625 -95.734375 94.226562 -90.898438 97.5 -84.703125 C 100.769531 -78.503906 102.40625 -71.269531 102.40625 -63 L 102.40625 0 L 74.796875 0 L 74.796875 -58.203125 C 74.796875 -64.335938 73.128906 -69.300781 69.796875 -73.09375 C 66.460938 -76.894531 61.863281 -78.796875 56 -78.796875 C 49.195312 -78.796875 43.726562 -76.757812 39.59375 -72.6875 C 35.46875 -68.625 33.40625 -63.0625 33.40625 -56 L 33.40625 0 L 5.59375 0 L 5.59375 -137 Z M 33.40625 -137 "/></g></g><g style="fill:#000000;fill-opacity:1;"><g transform="translate(237.997985, 771.142829)"><path style="stroke:none" d="M 33.40625 -111.40625 L 5.59375 -111.40625 L 5.59375 -137 L 33.40625 -137 Z M 33.40625 0 L 5.59375 0 L 5.59375 -102.59375 L 33.40625 -102.59375 Z M 33.40625 0 "/></g></g><g style="fill:#000000;fill-opacity:1;"><g transform="translate(276.996954, 771.142829)"><path style="stroke:none" d="M 61 -78.40625 C 55.664062 -78.40625 50.898438 -77.171875 46.703125 -74.703125 C 42.503906 -72.234375 39.171875 -68.929688 36.703125 -64.796875 C 34.234375 -60.660156 33 -55.992188 33 -50.796875 C 33 -45.734375 34.265625 -41.097656 36.796875 -36.890625 C 39.328125 -32.691406 42.691406 -29.359375 46.890625 -26.890625 C 51.097656 -24.429688 55.800781 -23.203125 61 -23.203125 C 66.0625 -23.203125 70.625 -24.429688 74.6875 -26.890625 C 78.757812 -29.359375 81.992188 -32.691406 84.390625 -36.890625 C 86.796875 -41.097656 88 -45.734375 88 -50.796875 C 88 -55.992188 86.796875 -60.660156 84.390625 -64.796875 C 81.992188 -68.929688 78.757812 -72.234375 74.6875 -74.703125 C 70.625 -77.171875 66.0625 -78.40625 61 -78.40625 Z M 63.40625 1.40625 C 57.664062 1.40625 52.128906 0.570312 46.796875 -1.09375 C 41.460938 -2.757812 37 -4.992188 33.40625 -7.796875 L 33.40625 35.203125 L 5.59375 35.203125 L 5.59375 -102.59375 L 33.40625 -102.59375 L 33.40625 -94.59375 C 37 -97.394531 41.460938 -99.59375 46.796875 -101.1875 C 52.128906 -102.789062 57.664062 -103.59375 63.40625 -103.59375 C 72.738281 -103.59375 81.335938 -101.289062 89.203125 -96.6875 C 97.066406 -92.09375 103.363281 -85.863281 108.09375 -78 C 112.832031 -70.132812 115.203125 -61.269531 115.203125 -51.40625 C 115.203125 -44.070312 113.832031 -37.203125 111.09375 -30.796875 C 108.363281 -24.398438 104.597656 -18.765625 99.796875 -13.890625 C 94.992188 -9.023438 89.492188 -5.257812 83.296875 -2.59375 C 77.097656 0.0703125 70.46875 1.40625 63.40625 1.40625 Z M 63.40625 1.40625 "/></g></g><g style="fill:#000000;fill-opacity:1;"><g transform="translate(395.993781, 771.142829)"><path style="stroke:none" d="M 61 -78.40625 C 55.664062 -78.40625 50.898438 -77.171875 46.703125 -74.703125 C 42.503906 -72.234375 39.171875 -68.929688 36.703125 -64.796875 C 34.234375 -60.660156 33 -55.992188 33 -50.796875 C 33 -45.734375 34.265625 -41.097656 36.796875 -36.890625 C 39.328125 -32.691406 42.691406 -29.359375 46.890625 -26.890625 C 51.097656 -24.429688 55.800781 -23.203125 61 -23.203125 C 66.0625 -23.203125 70.625 -24.429688 74.6875 -26.890625 C 78.757812 -29.359375 81.992188 -32.691406 84.390625 -36.890625 C 86.796875 -41.097656 88 -45.734375 88 -50.796875 C 88 -55.992188 86.796875 -60.660156 84.390625 -64.796875 C 81.992188 -68.929688 78.757812 -72.234375 74.6875 -74.703125 C 70.625 -77.171875 66.0625 -78.40625 61 -78.40625 Z M 63.40625 1.40625 C 57.664062 1.40625 52.128906 0.570312 46.796875 -1.09375 C 41.460938 -2.757812 37 -4.992188 33.40625 -7.796875 L 33.40625 35.203125 L 5.59375 35.203125 L 5.59375 -102.59375 L 33.40625 -102.59375 L 33.40625 -94.59375 C 37 -97.394531 41.460938 -99.59375 46.796875 -101.1875 C 52.128906 -102.789062 57.664062 -103.59375 63.40625 -103.59375 C 72.738281 -103.59375 81.335938 -101.289062 89.203125 -96.6875 C 97.066406 -92.09375 103.363281 -85.863281 108.09375 -78 C 112.832031 -70.132812 115.203125 -61.269531 115.203125 -51.40625 C 115.203125 -44.070312 113.832031 -37.203125 111.09375 -30.796875 C 108.363281 -24.398438 104.597656 -18.765625 99.796875 -13.890625 C 94.992188 -9.023438 89.492188 -5.257812 83.296875 -2.59375 C 77.097656 0.0703125 70.46875 1.40625 63.40625 1.40625 Z M 63.40625 1.40625 "/></g></g><g style="fill:#000000;fill-opacity:1;"><g transform="translate(514.990609, 771.142829)"><path style="stroke:none" d="M 33.40625 -111.40625 L 5.59375 -111.40625 L 5.59375 -137 L 33.40625 -137 Z M 33.40625 0 L 5.59375 0 L 5.59375 -102.59375 L 33.40625 -102.59375 Z M 33.40625 0 "/></g></g><g style="fill:#000000;fill-opacity:1;"><g transform="translate(553.9896, 771.142829)"><path style="stroke:none" d="M 33 -102.59375 L 33 -92.203125 C 35.53125 -95.128906 39.363281 -97.894531 44.5 -100.5 C 49.632812 -103.101562 55.734375 -104.40625 62.796875 -104.40625 C 70.796875 -104.40625 77.757812 -102.671875 83.6875 -99.203125 C 89.625 -95.734375 94.226562 -90.898438 97.5 -84.703125 C 100.769531 -78.503906 102.40625 -71.269531 102.40625 -63 L 102.40625 0 L 74.796875 0 L 74.796875 -58.203125 C 74.796875 -64.335938 73.128906 -69.300781 69.796875 -73.09375 C 66.460938 -76.894531 61.863281 -78.796875 56 -78.796875 C 49.195312 -78.796875 43.726562 -76.757812 39.59375 -72.6875 C 35.46875 -68.625 33.40625 -63.0625 33.40625 -56 L 33.40625 0 L 5.59375 0 L 5.59375 -102.59375 Z M 33 -102.59375 "/></g></g><g style="fill:#000000;fill-opacity:1;"><g transform="translate(661.986665, 771.142829)"><path style="stroke:none" d="M 57.203125 -79.203125 C 52.398438 -79.203125 48 -77.96875 44 -75.5 C 40 -73.03125 36.796875 -69.757812 34.390625 -65.6875 C 31.992188 -61.625 30.796875 -57.128906 30.796875 -52.203125 C 30.796875 -47.128906 31.992188 -42.5625 34.390625 -38.5 C 36.796875 -34.4375 40 -31.203125 44 -28.796875 C 48 -26.398438 52.398438 -25.203125 57.203125 -25.203125 C 62.535156 -25.203125 67.265625 -26.398438 71.390625 -28.796875 C 75.523438 -31.203125 78.789062 -34.4375 81.1875 -38.5 C 83.59375 -42.5625 84.796875 -47.128906 84.796875 -52.203125 C 84.796875 -57.128906 83.59375 -61.625 81.1875 -65.6875 C 78.789062 -69.757812 75.492188 -73.03125 71.296875 -75.5 C 67.097656 -77.96875 62.398438 -79.203125 57.203125 -79.203125 Z M 57 37.59375 C 45.53125 37.59375 35.726562 35.492188 27.59375 31.296875 C 19.46875 27.097656 12.738281 21.195312 7.40625 13.59375 L 27.40625 0 C 30.46875 4.269531 34.460938 7.703125 39.390625 10.296875 C 44.328125 12.898438 50.0625 14.203125 56.59375 14.203125 C 65.257812 14.203125 72.0625 12.398438 77 8.796875 C 81.9375 5.203125 84.40625 -0.257812 84.40625 -7.59375 L 84.40625 -10.40625 C 76.9375 -4.132812 67.066406 -1 54.796875 -1 C 45.734375 -1 37.300781 -3.265625 29.5 -7.796875 C 21.695312 -12.328125 15.460938 -18.457031 10.796875 -26.1875 C 6.128906 -33.925781 3.796875 -42.664062 3.796875 -52.40625 C 3.796875 -59.601562 5.160156 -66.332031 7.890625 -72.59375 C 10.628906 -78.863281 14.363281 -84.363281 19.09375 -89.09375 C 23.832031 -93.832031 29.265625 -97.535156 35.390625 -100.203125 C 41.523438 -102.867188 47.992188 -104.203125 54.796875 -104.203125 C 61.597656 -104.203125 67.5 -103.265625 72.5 -101.390625 C 77.5 -99.523438 81.46875 -97.394531 84.40625 -95 L 84.40625 -102.59375 L 112 -102.59375 L 112 -10 C 112 -1.195312 109.863281 6.800781 105.59375 14 C 101.332031 21.195312 95.132812 26.925781 87 31.1875 C 78.863281 35.457031 68.863281 37.59375 57 37.59375 Z M 57 37.59375 "/></g></g></g></svg>