<svg xmlns="http://www.w3.org/2000/svg" xmlns:xlink="http://www.w3.org/1999/xlink" width="2160" zoomAndPan="magnify" viewBox="0 0 1620 809.999993" height="1080" preserveAspectRatio="xMidYMid meet" version="1.0"><defs><g/></defs><path fill="#000000" d="M 1143.027344 418.207031 L 1143.027344 73.390625 C 1143.027344 46.179688 1120.960938 24.128906 1093.734375 24.128906 C 1093.734375 24.128906 962.289062 24.128906 962.289062 24.128906 C 935.0625 24.128906 912.996094 46.179688 912.996094 73.390625 L 912.996094 418.207031 C 912.996094 418.207031 830.839844 418.207031 830.839844 418.207031 C 812.175781 418.207031 795.101562 428.75 786.757812 445.429688 C 778.410156 462.128906 780.199219 482.097656 791.40625 497.023438 C 791.40625 497.023438 988.578125 759.738281 988.578125 759.738281 C 997.894531 772.136719 1012.5 779.445312 1028.011719 779.445312 C 1043.523438 779.445312 1058.128906 772.136719 1067.445312 759.738281 C 1067.445312 759.738281 1264.617188 497.023438 1264.617188 497.023438 C 1275.824219 482.097656 1277.613281 462.128906 1269.265625 445.429688 C 1260.917969 428.75 1243.847656 418.207031 1225.183594 418.207031 Z M 1110.167969 434.625 C 1110.167969 443.691406 1117.527344 451.046875 1126.597656 451.046875 L 1225.183594 451.046875 C 1231.410156 451.046875 1237.09375 454.558594 1239.871094 460.125 C 1242.664062 465.691406 1242.058594 472.34375 1238.328125 477.316406 C 1238.328125 477.316406 1041.15625 740.035156 1041.15625 740.035156 C 1038.050781 744.175781 1033.1875 746.605469 1028.011719 746.605469 C 1022.835938 746.605469 1017.972656 744.175781 1014.867188 740.035156 C 1014.867188 740.035156 817.695312 477.316406 817.695312 477.316406 C 813.964844 472.34375 813.359375 465.691406 816.152344 460.125 C 818.929688 454.558594 824.613281 451.046875 830.839844 451.046875 L 929.425781 451.046875 C 938.496094 451.046875 945.855469 443.691406 945.855469 434.625 L 945.855469 73.390625 C 945.855469 64.324219 953.21875 56.96875 962.289062 56.96875 L 1093.734375 56.96875 C 1102.804688 56.96875 1110.167969 64.324219 1110.167969 73.390625 C 1110.167969 73.390625 1110.167969 434.625 1110.167969 434.625 Z M 1110.167969 434.625 " fill-opacity="1" fill-rule="evenodd"/><g fill="#000000" fill-opacity="1"><g transform="translate(1063.561009, 711.525464)"><g><path d="M -15.859375 -39.65625 C -15.859375 -43.300781 -16.703125 -46.5625 -18.390625 -49.4375 C -20.078125 -52.3125 -22.351562 -54.585938 -25.21875 -56.265625 C -28.09375 -57.953125 -31.265625 -58.796875 -34.734375 -58.796875 C -38.203125 -58.796875 -41.367188 -57.953125 -44.234375 -56.265625 C -47.109375 -54.585938 -49.390625 -52.285156 -51.078125 -49.359375 C -52.765625 -46.441406 -53.609375 -43.207031 -53.609375 -39.65625 C -53.609375 -36.195312 -52.765625 -33.078125 -51.078125 -30.296875 C -49.390625 -27.515625 -47.109375 -25.300781 -44.234375 -23.65625 C -41.367188 -22.019531 -38.203125 -21.203125 -34.734375 -21.203125 C -31.265625 -21.203125 -28.09375 -22.019531 -25.21875 -23.65625 C -22.351562 -25.300781 -20.078125 -27.515625 -18.390625 -30.296875 C -16.703125 -33.078125 -15.859375 -36.195312 -15.859375 -39.65625 Z M 0 -58.53125 L -5.203125 -58.53125 C -3.285156 -56.070312 -1.78125 -53.039062 -0.6875 -49.4375 C 0.40625 -45.832031 0.953125 -42.023438 0.953125 -38.015625 C 0.953125 -31.628906 -0.617188 -25.75 -3.765625 -20.375 C -6.910156 -15 -11.171875 -10.691406 -16.546875 -7.453125 C -21.921875 -4.210938 -27.984375 -2.59375 -34.734375 -2.59375 C -39.835938 -2.59375 -44.554688 -3.523438 -48.890625 -5.390625 C -53.222656 -7.265625 -57.050781 -9.84375 -60.375 -13.125 C -63.695312 -16.40625 -66.269531 -20.1875 -68.09375 -24.46875 C -69.925781 -28.757812 -70.84375 -33.273438 -70.84375 -38.015625 C -70.84375 -42.023438 -70.269531 -45.832031 -69.125 -49.4375 C -67.988281 -53.039062 -66.460938 -56.070312 -64.546875 -58.53125 L -93.671875 -58.53125 L -93.671875 -77.53125 L 0 -77.53125 Z M 0 -58.53125 "/></g></g></g><g fill="#000000" fill-opacity="1"><g transform="translate(1063.561009, 630.1615)"><g><path d="M -15.046875 -72.75 C -9.941406 -69.375 -5.882812 -64.953125 -2.875 -59.484375 C 0.132812 -54.015625 1.640625 -47.359375 1.640625 -39.515625 C 1.640625 -32.046875 0.046875 -25.550781 -3.140625 -20.03125 C -6.335938 -14.519531 -10.691406 -10.234375 -16.203125 -7.171875 C -21.722656 -4.117188 -27.945312 -2.59375 -34.875 -2.59375 C -41.613281 -2.59375 -47.765625 -4.140625 -53.328125 -7.234375 C -58.890625 -10.335938 -63.3125 -14.691406 -66.59375 -20.296875 C -69.875 -25.910156 -71.515625 -32.363281 -71.515625 -39.65625 C -71.515625 -47.039062 -69.960938 -53.398438 -66.859375 -58.734375 C -63.765625 -64.066406 -59.523438 -68.144531 -54.140625 -70.96875 C -48.765625 -73.800781 -42.660156 -75.21875 -35.828125 -75.21875 C -34.460938 -75.21875 -33.050781 -75.171875 -31.59375 -75.078125 C -30.132812 -74.984375 -29.3125 -74.9375 -29.125 -74.9375 L -29.125 -21.328125 C -24.65625 -22.335938 -21.097656 -24.457031 -18.453125 -27.6875 C -15.816406 -30.925781 -14.5 -35.007812 -14.5 -39.9375 C -14.5 -44.21875 -15.34375 -47.882812 -17.03125 -50.9375 C -18.71875 -53.988281 -20.972656 -56.519531 -23.796875 -58.53125 Z M -55.9375 -39.515625 C -55.9375 -35.046875 -54.816406 -31.332031 -52.578125 -28.375 C -50.347656 -25.414062 -47.226562 -23.296875 -43.21875 -22.015625 L -43.21875 -56.0625 C -47.5 -55.0625 -50.6875 -53.007812 -52.78125 -49.90625 C -54.882812 -46.8125 -55.9375 -43.347656 -55.9375 -39.515625 Z M -55.9375 -39.515625 "/></g></g></g><g fill="#000000" fill-opacity="1"><g transform="translate(1063.561009, 552.216183)"><g><path d="M -22.015625 -2.734375 L -22.015625 -22.015625 C -20.648438 -22.015625 -19.210938 -22.398438 -17.703125 -23.171875 C -16.203125 -23.953125 -14.972656 -25.273438 -14.015625 -27.140625 C -13.054688 -29.015625 -12.53125 -31.640625 -12.4375 -35.015625 C -12.4375 -38.566406 -13.117188 -41.1875 -14.484375 -42.875 C -15.859375 -44.5625 -17.367188 -45.40625 -19.015625 -45.40625 C -21.109375 -45.40625 -22.609375 -44.398438 -23.515625 -42.390625 C -24.429688 -40.390625 -25.113281 -37.816406 -25.5625 -34.671875 C -26.019531 -31.523438 -26.566406 -28.195312 -27.203125 -24.6875 C -27.847656 -21.175781 -28.875 -17.847656 -30.28125 -14.703125 C -31.695312 -11.554688 -33.816406 -8.976562 -36.640625 -6.96875 C -39.472656 -4.96875 -43.347656 -3.96875 -48.265625 -3.96875 C -52.554688 -3.96875 -56.410156 -5.148438 -59.828125 -7.515625 C -63.242188 -9.890625 -65.953125 -13.238281 -67.953125 -17.5625 C -69.960938 -21.894531 -70.96875 -27.023438 -70.96875 -32.953125 C -70.96875 -41.890625 -68.847656 -49 -64.609375 -54.28125 C -60.367188 -59.570312 -54.738281 -62.492188 -47.71875 -63.046875 L -47.71875 -44.03125 C -50.28125 -43.9375 -52.398438 -43.179688 -54.078125 -41.765625 C -55.765625 -40.359375 -56.609375 -37.515625 -56.609375 -33.234375 C -56.609375 -30.492188 -56.128906 -28.144531 -55.171875 -26.1875 C -54.222656 -24.226562 -52.648438 -23.25 -50.453125 -23.25 C -48.359375 -23.25 -46.8125 -24.273438 -45.8125 -26.328125 C -44.8125 -28.378906 -44.035156 -31 -43.484375 -34.1875 C -42.941406 -37.375 -42.328125 -40.789062 -41.640625 -44.4375 C -40.953125 -48.082031 -39.945312 -51.5 -38.625 -54.6875 C -37.3125 -57.882812 -35.375 -60.507812 -32.8125 -62.5625 C -30.257812 -64.613281 -26.753906 -65.640625 -22.296875 -65.640625 C -16.734375 -65.640625 -12.21875 -64.222656 -8.75 -61.390625 C -5.289062 -58.566406 -2.738281 -54.785156 -1.09375 -50.046875 C 0.550781 -45.304688 1.375 -39.972656 1.375 -34.046875 C 1.375 -27.671875 0.347656 -22.15625 -1.703125 -17.5 C -3.753906 -12.851562 -6.535156 -9.273438 -10.046875 -6.765625 C -13.554688 -4.265625 -17.546875 -2.921875 -22.015625 -2.734375 Z M -22.015625 -2.734375 "/></g></g></g><g fill="#000000" fill-opacity="1"><g transform="translate(1063.561009, 484.253342)"><g><path d="M -25.703125 -57.578125 L -16.265625 -72.34375 C -10.890625 -68.96875 -6.5625 -64.585938 -3.28125 -59.203125 C 0 -53.828125 1.640625 -47.3125 1.640625 -39.65625 C 1.640625 -32.457031 0.0234375 -26.050781 -3.203125 -20.4375 C -6.441406 -14.832031 -10.84375 -10.457031 -16.40625 -7.3125 C -21.96875 -4.164062 -28.125 -2.59375 -34.875 -2.59375 C -41.707031 -2.59375 -47.878906 -4.164062 -53.390625 -7.3125 C -58.910156 -10.457031 -63.3125 -14.832031 -66.59375 -20.4375 C -69.875 -26.050781 -71.515625 -32.457031 -71.515625 -39.65625 C -71.515625 -47.40625 -69.828125 -53.988281 -66.453125 -59.40625 C -63.085938 -64.832031 -58.671875 -69.191406 -53.203125 -72.484375 L -43.890625 -57.578125 C -46.804688 -55.835938 -49.242188 -53.597656 -51.203125 -50.859375 C -53.171875 -48.128906 -54.15625 -44.625 -54.15625 -40.34375 C -54.15625 -34.78125 -52.375 -30.289062 -48.8125 -26.875 C -45.257812 -23.457031 -40.613281 -21.75 -34.875 -21.75 C -29.125 -21.75 -24.445312 -23.457031 -20.84375 -26.875 C -17.25 -30.289062 -15.453125 -34.78125 -15.453125 -40.34375 C -15.453125 -44.625 -16.429688 -48.128906 -18.390625 -50.859375 C -20.347656 -53.597656 -22.785156 -55.835938 -25.703125 -57.578125 Z M -25.703125 -57.578125 "/></g></g></g><g fill="#000000" fill-opacity="1"><g transform="translate(1063.561009, 412.73512)"><g><path d="M -53.609375 -39.65625 C -53.609375 -36.195312 -52.765625 -33.078125 -51.078125 -30.296875 C -49.390625 -27.515625 -47.109375 -25.300781 -44.234375 -23.65625 C -41.367188 -22.019531 -38.203125 -21.203125 -34.734375 -21.203125 C -31.265625 -21.203125 -28.09375 -22.019531 -25.21875 -23.65625 C -22.351562 -25.300781 -20.078125 -27.515625 -18.390625 -30.296875 C -16.703125 -33.078125 -15.859375 -36.195312 -15.859375 -39.65625 C -15.859375 -43.300781 -16.703125 -46.5625 -18.390625 -49.4375 C -20.078125 -52.3125 -22.351562 -54.585938 -25.21875 -56.265625 C -28.09375 -57.953125 -31.265625 -58.796875 -34.734375 -58.796875 C -38.203125 -58.796875 -41.367188 -57.953125 -44.234375 -56.265625 C -47.109375 -54.585938 -49.390625 -52.285156 -51.078125 -49.359375 C -52.765625 -46.441406 -53.609375 -43.207031 -53.609375 -39.65625 Z M 0 -58.53125 L -5.203125 -58.53125 C -3.285156 -56.070312 -1.78125 -53.039062 -0.6875 -49.4375 C 0.40625 -45.832031 0.953125 -42.023438 0.953125 -38.015625 C 0.953125 -31.628906 -0.617188 -25.75 -3.765625 -20.375 C -6.910156 -15 -11.171875 -10.691406 -16.546875 -7.453125 C -21.921875 -4.210938 -27.984375 -2.59375 -34.734375 -2.59375 C -39.835938 -2.59375 -44.554688 -3.523438 -48.890625 -5.390625 C -53.222656 -7.265625 -57.050781 -9.84375 -60.375 -13.125 C -63.695312 -16.40625 -66.269531 -20.1875 -68.09375 -24.46875 C -69.925781 -28.757812 -70.84375 -33.273438 -70.84375 -38.015625 C -70.84375 -42.023438 -70.269531 -45.832031 -69.125 -49.4375 C -67.988281 -53.039062 -66.460938 -56.070312 -64.546875 -58.53125 L -70.15625 -58.53125 L -70.15625 -77.53125 L 0 -77.53125 Z M 0 -58.53125 "/></g></g></g><g fill="#000000" fill-opacity="1"><g transform="translate(1063.561009, 331.371156)"><g><path d="M 0 -22.96875 L 0 -3.828125 L -70.15625 -3.828125 L -70.15625 -22.84375 L -60.578125 -22.84375 C -63.765625 -25.207031 -66.316406 -28.097656 -68.234375 -31.515625 C -70.148438 -34.941406 -71.109375 -38.84375 -71.109375 -43.21875 L -51.96875 -43.21875 C -51.96875 -36.28125 -50.164062 -31.171875 -46.5625 -27.890625 C -42.957031 -24.609375 -38.101562 -22.96875 -32 -22.96875 Z M 0 -22.96875 "/></g></g></g><g fill="#000000" fill-opacity="1"><g transform="translate(1063.561009, 289.937137)"><g><path d="M -54.15625 -39.109375 C -54.15625 -35.828125 -53.3125 -32.816406 -51.625 -30.078125 C -49.9375 -27.347656 -47.703125 -25.160156 -44.921875 -23.515625 C -42.140625 -21.878906 -39.0625 -21.0625 -35.6875 -21.0625 C -32.226562 -21.0625 -29.109375 -21.878906 -26.328125 -23.515625 C -23.546875 -25.160156 -21.332031 -27.347656 -19.6875 -30.078125 C -18.050781 -32.816406 -17.234375 -35.828125 -17.234375 -39.109375 C -17.234375 -42.753906 -18.050781 -45.988281 -19.6875 -48.8125 C -21.332031 -51.644531 -23.546875 -53.878906 -26.328125 -55.515625 C -29.109375 -57.160156 -32.226562 -57.984375 -35.6875 -57.984375 C -39.0625 -57.984375 -42.140625 -57.160156 -44.921875 -55.515625 C -47.703125 -53.878906 -49.9375 -51.625 -51.625 -48.75 C -53.3125 -45.875 -54.15625 -42.660156 -54.15625 -39.109375 Z M 25.703125 -38.96875 C 25.703125 -31.132812 24.265625 -24.4375 21.390625 -18.875 C 18.523438 -13.3125 14.492188 -8.707031 9.296875 -5.0625 L 0 -18.734375 C 2.914062 -20.828125 5.257812 -23.5625 7.03125 -26.9375 C 8.8125 -30.3125 9.703125 -34.234375 9.703125 -38.703125 C 9.703125 -44.628906 8.472656 -49.273438 6.015625 -52.640625 C 3.554688 -56.015625 -0.179688 -57.703125 -5.203125 -57.703125 L -7.109375 -57.703125 C -2.828125 -52.597656 -0.6875 -45.851562 -0.6875 -37.46875 C -0.6875 -31.269531 -2.234375 -25.503906 -5.328125 -20.171875 C -8.429688 -14.835938 -12.625 -10.570312 -17.90625 -7.375 C -23.195312 -4.1875 -29.171875 -2.59375 -35.828125 -2.59375 C -40.753906 -2.59375 -45.359375 -3.523438 -49.640625 -5.390625 C -53.921875 -7.265625 -57.679688 -9.820312 -60.921875 -13.0625 C -64.160156 -16.300781 -66.691406 -20.015625 -68.515625 -24.203125 C -70.335938 -28.398438 -71.25 -32.820312 -71.25 -37.46875 C -71.25 -42.113281 -70.609375 -46.144531 -69.328125 -49.5625 C -68.054688 -52.988281 -66.597656 -55.703125 -64.953125 -57.703125 L -70.15625 -57.703125 L -70.15625 -76.578125 L -6.84375 -76.578125 C -0.820312 -76.578125 4.644531 -75.117188 9.5625 -72.203125 C 14.488281 -69.285156 18.410156 -65.046875 21.328125 -59.484375 C 24.242188 -53.921875 25.703125 -47.082031 25.703125 -38.96875 Z M 25.703125 -38.96875 "/></g></g></g><g fill="#000000" fill-opacity="1"><g transform="translate(1063.561009, 209.667137)"><g><path d="M -53.609375 -39.65625 C -53.609375 -36.195312 -52.765625 -33.078125 -51.078125 -30.296875 C -49.390625 -27.515625 -47.109375 -25.300781 -44.234375 -23.65625 C -41.367188 -22.019531 -38.203125 -21.203125 -34.734375 -21.203125 C -31.265625 -21.203125 -28.09375 -22.019531 -25.21875 -23.65625 C -22.351562 -25.300781 -20.078125 -27.515625 -18.390625 -30.296875 C -16.703125 -33.078125 -15.859375 -36.195312 -15.859375 -39.65625 C -15.859375 -43.300781 -16.703125 -46.5625 -18.390625 -49.4375 C -20.078125 -52.3125 -22.351562 -54.585938 -25.21875 -56.265625 C -28.09375 -57.953125 -31.265625 -58.796875 -34.734375 -58.796875 C -38.203125 -58.796875 -41.367188 -57.953125 -44.234375 -56.265625 C -47.109375 -54.585938 -49.390625 -52.285156 -51.078125 -49.359375 C -52.765625 -46.441406 -53.609375 -43.207031 -53.609375 -39.65625 Z M 0 -58.53125 L -5.203125 -58.53125 C -3.285156 -56.070312 -1.78125 -53.039062 -0.6875 -49.4375 C 0.40625 -45.832031 0.953125 -42.023438 0.953125 -38.015625 C 0.953125 -31.628906 -0.617188 -25.75 -3.765625 -20.375 C -6.910156 -15 -11.171875 -10.691406 -16.546875 -7.453125 C -21.921875 -4.210938 -27.984375 -2.59375 -34.734375 -2.59375 C -39.835938 -2.59375 -44.554688 -3.523438 -48.890625 -5.390625 C -53.222656 -7.265625 -57.050781 -9.84375 -60.375 -13.125 C -63.695312 -16.40625 -66.269531 -20.1875 -68.09375 -24.46875 C -69.925781 -28.757812 -70.84375 -33.273438 -70.84375 -38.015625 C -70.84375 -42.023438 -70.269531 -45.832031 -69.125 -49.4375 C -67.988281 -53.039062 -66.460938 -56.070312 -64.546875 -58.53125 L -70.15625 -58.53125 L -70.15625 -77.53125 L 0 -77.53125 Z M 0 -58.53125 "/></g></g></g><g fill="#000000" fill-opacity="1"><g transform="translate(1063.561009, 128.303173)"><g><path d="M 0 -22.96875 L 0 -3.828125 L -70.15625 -3.828125 L -70.15625 -22.84375 L -60.578125 -22.84375 C -63.765625 -25.207031 -66.316406 -28.097656 -68.234375 -31.515625 C -70.148438 -34.941406 -71.109375 -38.84375 -71.109375 -43.21875 L -51.96875 -43.21875 C -51.96875 -36.28125 -50.164062 -31.171875 -46.5625 -27.890625 C -42.957031 -24.609375 -38.101562 -22.96875 -32 -22.96875 Z M 0 -22.96875 "/></g></g></g><g fill="#000000" fill-opacity="1"><g transform="translate(0.000007, 782.455109)"><g><path d="M 155.203125 -222 C 139.734375 -222 125.863281 -218.265625 113.59375 -210.796875 C 101.332031 -203.328125 91.597656 -193.191406 84.390625 -180.390625 C 77.191406 -167.597656 73.59375 -153.332031 73.59375 -137.59375 C 73.59375 -121.59375 77.191406 -107.125 84.390625 -94.1875 C 91.597656 -81.257812 101.535156 -71.0625 114.203125 -63.59375 C 126.867188 -56.132812 141.203125 -52.40625 157.203125 -52.40625 C 174.003906 -52.40625 188.738281 -56.46875 201.40625 -64.59375 C 214.070312 -72.726562 224.269531 -83.460938 232 -96.796875 L 280.40625 -63.203125 C 267.332031 -41.597656 250.59375 -24.726562 230.1875 -12.59375 C 209.789062 -0.46875 185.726562 5.59375 158 5.59375 C 136.9375 5.59375 117.40625 1.925781 99.40625 -5.40625 C 81.40625 -12.738281 65.738281 -22.867188 52.40625 -35.796875 C 39.070312 -48.734375 28.738281 -63.929688 21.40625 -81.390625 C 14.070312 -98.859375 10.40625 -117.59375 10.40625 -137.59375 C 10.40625 -157.59375 14.070312 -176.191406 21.40625 -193.390625 C 28.738281 -210.597656 39.003906 -225.664062 52.203125 -238.59375 C 65.398438 -251.53125 80.863281 -261.597656 98.59375 -268.796875 C 116.332031 -275.992188 135.601562 -279.59375 156.40625 -279.59375 C 183.332031 -279.59375 207.257812 -273.925781 228.1875 -262.59375 C 249.125 -251.257812 266.128906 -234.128906 279.203125 -211.203125 L 230 -177.203125 C 222 -190.535156 211.863281 -201.332031 199.59375 -209.59375 C 187.332031 -217.863281 172.535156 -222 155.203125 -222 Z M 155.203125 -222 "/></g></g></g><g fill="#000000" fill-opacity="1"><g transform="translate(283.59768, 782.455109)"><g><path d="M 116.40625 5.203125 C 81.738281 5.203125 55.070312 -2.863281 36.40625 -19 C 17.738281 -35.132812 7.46875 -57.332031 5.59375 -85.59375 L 67.59375 -85.59375 C 68.132812 -78.664062 69.9375 -72 73 -65.59375 C 76.0625 -59.195312 81.257812 -54 88.59375 -50 C 95.925781 -46 105.726562 -44 118 -44 C 133.726562 -44 145.523438 -46.796875 153.390625 -52.390625 C 161.265625 -57.992188 165.203125 -65.0625 165.203125 -73.59375 C 165.203125 -80.800781 162.535156 -86.40625 157.203125 -90.40625 C 151.867188 -94.40625 144.800781 -97.671875 136 -100.203125 C 127.195312 -102.734375 117.597656 -105.066406 107.203125 -107.203125 C 96.265625 -109.867188 85.128906 -112.929688 73.796875 -116.390625 C 62.460938 -119.859375 51.992188 -124.660156 42.390625 -130.796875 C 32.796875 -136.929688 25.066406 -145.195312 19.203125 -155.59375 C 13.335938 -166 10.40625 -179.332031 10.40625 -195.59375 C 10.40625 -211.59375 14.40625 -225.859375 22.40625 -238.390625 C 30.40625 -250.929688 42.070312 -260.867188 57.40625 -268.203125 C 72.738281 -275.535156 91.335938 -279.203125 113.203125 -279.203125 C 146.535156 -279.203125 172.332031 -270.929688 190.59375 -254.390625 C 208.863281 -237.859375 218.929688 -216.128906 220.796875 -189.203125 L 158.40625 -189.203125 C 157.863281 -200.128906 154.125 -209.457031 147.1875 -217.1875 C 140.257812 -224.925781 128.394531 -228.796875 111.59375 -228.796875 C 99.332031 -228.796875 89.398438 -226.394531 81.796875 -221.59375 C 74.203125 -216.800781 70.40625 -209.867188 70.40625 -200.796875 C 70.40625 -193.066406 73.132812 -186.929688 78.59375 -182.390625 C 84.0625 -177.859375 91.195312 -174.257812 100 -171.59375 C 108.800781 -168.925781 118.398438 -166.394531 128.796875 -164 C 139.992188 -161.601562 151.394531 -158.738281 163 -155.40625 C 174.601562 -152.070312 185.203125 -147.535156 194.796875 -141.796875 C 204.398438 -136.066406 212.203125 -128.398438 218.203125 -118.796875 C 224.203125 -109.203125 227.203125 -96.671875 227.203125 -81.203125 C 227.203125 -64.671875 222.929688 -49.867188 214.390625 -36.796875 C 205.859375 -23.734375 193.394531 -13.46875 177 -6 C 160.601562 1.46875 140.40625 5.203125 116.40625 5.203125 Z M 116.40625 5.203125 "/></g></g></g><g fill="#000000" fill-opacity="1"><g transform="translate(504.795942, 782.455109)"><g><path d="M 173.203125 0 L 97.203125 0 L 2.40625 -274 L 69.203125 -274 L 136.796875 -66.796875 L 204.40625 -274 L 268.40625 -274 Z M 173.203125 0 "/></g></g></g><path stroke-linecap="round" transform="matrix(0.75, 0, 0, 0.75, 400.532536, 95.946776)" fill="none" stroke-linejoin="miter" d="M 10.998286 10.998049 L 85.925373 10.998049 " stroke="#000000" stroke-width="22" stroke-opacity="1" stroke-miterlimit="4"/><path stroke-linecap="butt" transform="matrix(0.75, 0, 0, 0.75, 97.186123, 164.94678)" fill="none" stroke-linejoin="miter" d="M 0.00183612 10.998044 L 490.475819 10.998044 " stroke="#000000" stroke-width="22" stroke-opacity="1" stroke-miterlimit="4"/><path stroke-linecap="butt" transform="matrix(0.75, 0, 0, 0.75, 97.186123, 234.097626)" fill="none" stroke-linejoin="miter" d="M 0.00183612 11.000041 L 490.475819 11.000041 " stroke="#000000" stroke-width="22" stroke-opacity="1" stroke-miterlimit="4"/><path stroke-linecap="butt" transform="matrix(0.75, 0.000000000000000054, -0.000000000000000054, 0.75, 97.186123, 303.248472)" fill="none" stroke-linejoin="miter" d="M 0.00183612 11.002038 L 783.809167 11.002038 " stroke="#000000" stroke-width="22" stroke-opacity="1" stroke-miterlimit="4"/><path stroke-linecap="butt" transform="matrix(0.75, 0.000000000000000109, -0.000000000000000109, 0.75, 97.186123, 372.399318)" fill="none" stroke-linejoin="miter" d="M 0.00183612 10.998826 L 783.809167 10.998826 " stroke="#000000" stroke-width="22" stroke-opacity="1" stroke-miterlimit="4"/><path stroke-linecap="round" transform="matrix(0.75, 0, 0, 0.75, 99.281604, 441.550198)" fill="none" stroke-linejoin="miter" d="M 10.999529 11.000779 L 773.015192 11.000779 " stroke="#000000" stroke-width="22" stroke-opacity="1" stroke-miterlimit="4"/><path stroke-linecap="round" transform="matrix(0.000000001309, 0.75, -0.75, 0.000000001309, 113.064633, 97.756817)" fill="none" stroke-linejoin="miter" d="M 11.001327 10.997636 L 469.569059 10.997636 " stroke="#000000" stroke-width="22" stroke-opacity="1" stroke-miterlimit="4"/><path stroke-linecap="butt" transform="matrix(0, 0.75, -0.75, 0, 233.258287, 110.334492)" fill="none" stroke-linejoin="miter" d="M 0.00192727 11.000634 L 461.007159 11.000634 " stroke="#000000" stroke-width="22" stroke-opacity="1" stroke-miterlimit="4"/><path stroke-linecap="butt" transform="matrix(0, 0.75, -0.75, 0, 352.700644, 110.334492)" fill="none" stroke-linejoin="miter" d="M 0.00192727 11.0019 L 461.007159 11.0019 " stroke="#000000" stroke-width="22" stroke-opacity="1" stroke-miterlimit="4"/><path stroke-linecap="butt" transform="matrix(-0.00244123, 0.749996, -0.749996, -0.00244123, 473.285311, 104.078446)" fill="none" stroke-linejoin="miter" d="M -0.00108066 11.000269 L 469.39207 10.998447 " stroke="#000000" stroke-width="22" stroke-opacity="1" stroke-miterlimit="4"/><path stroke-linecap="round" transform="matrix(0, 0.75, -0.75, 0, 693.288188, 266.586539)" fill="none" stroke-linejoin="miter" d="M 10.999198 10.998835 L 244.46796 10.998835 " stroke="#000000" stroke-width="22" stroke-opacity="1" stroke-miterlimit="4"/><path stroke-linecap="round" transform="matrix(0.75, 0, 0, 0.75, 97.186123, 95.795926)" fill="none" stroke-linejoin="miter" d="M 11.001837 11.001265 L 358.460187 11.001265 " stroke="#000000" stroke-width="22" stroke-opacity="1" stroke-miterlimit="4"/><path stroke-linecap="round" transform="matrix(0, 0.75, -0.75, 0, 67.195813, 18.706052)" fill="none" stroke-linejoin="miter" d="M 35.001308 35.000669 L 593.089877 35.000669 " stroke="#000000" stroke-width="70" stroke-opacity="1" stroke-miterlimit="4"/><path stroke-linecap="round" transform="matrix(0.75, 0, 0, 0.75, 18.833385, 18.701868)" fill="none" stroke-linejoin="miter" d="M 34.998197 35.001678 L 669.440937 35.001678 " stroke="#000000" stroke-width="70" stroke-opacity="1" stroke-miterlimit="4"/><path stroke-linecap="round" transform="matrix(0.53033, 0.53033, -0.53033, 0.53033, 523.956485, 8.428864)" fill="none" stroke-linejoin="miter" d="M 34.999396 34.998365 L 452.321316 35.002048 " stroke="#000000" stroke-width="70" stroke-opacity="1" stroke-miterlimit="4"/><path stroke-linecap="round" transform="matrix(0.000000001309, 0.75, -0.75, 0.000000001309, 771.695416, 240.367729)" fill="none" stroke-linejoin="miter" d="M 34.99928 35.00014 L 304.535752 35.000141 " stroke="#000000" stroke-width="70" stroke-opacity="1" stroke-miterlimit="4"/><path stroke-linecap="round" transform="matrix(0.75, -0.000000000000000186, 0.000000000000000186, 0.75, 488.764614, 259.179206)" fill="none" stroke-linejoin="miter" d="M 35.001349 35.000644 L 343.246156 35.000644 " stroke="#000000" stroke-width="70" stroke-opacity="1" stroke-miterlimit="4"/><path stroke-linecap="round" transform="matrix(0, 0.75, -0.75, 0, 541.260796, 33.27835)" fill="none" stroke-linejoin="miter" d="M 34.998661 34.998771 L 343.243468 34.998771 " stroke="#000000" stroke-width="70" stroke-opacity="1" stroke-miterlimit="4"/></svg>