<svg xmlns="http://www.w3.org/2000/svg" width="2160" height="1080" version="1.0" viewBox="0 0 1286.243 812.073"><path fill-rule="evenodd" d="M1143.027 418.207V73.391c0-27.211-22.066-49.262-49.293-49.262H962.29c-27.226 0-49.293 22.05-49.293 49.262v344.816H830.84c-18.664 0-35.738 10.543-44.082 27.223-8.348 16.699-6.559 36.668 4.648 51.593l197.172 262.715a49.34 49.34 0 0 0 39.434 19.707 49.34 49.34 0 0 0 39.433-19.707l197.172-262.715c11.207-14.925 12.996-34.894 4.649-51.593-8.348-16.68-25.418-27.223-44.082-27.223Zm-32.859 16.418c0 9.066 7.36 16.422 16.43 16.422h98.586c6.226 0 11.91 3.512 14.687 9.078a16.39 16.39 0 0 1-1.543 17.191l-197.172 262.72a16.42 16.42 0 0 1-13.144 6.57c-5.176 0-10.04-2.43-13.145-6.57l-197.172-262.72a16.39 16.39 0 0 1-1.543-17.191 16.4 16.4 0 0 1 14.688-9.078h98.586c9.07 0 16.43-7.356 16.43-16.422V73.391c0-9.067 7.363-16.422 16.433-16.422h131.445c9.07 0 16.434 7.355 16.434 16.422zm0 0"/><path d="M1047.702 671.87q0-5.469-2.532-9.782a18.8 18.8 0 0 0-6.828-6.828q-4.313-2.532-9.515-2.531c-3.47 0-6.633.843-9.5 2.53q-4.313 2.519-6.844 6.907-2.531 4.377-2.531 9.703c0 3.461.843 6.578 2.53 9.36 1.688 2.78 3.97 4.996 6.845 6.64 2.867 1.637 6.03 2.453 9.5 2.453q5.202.001 9.515-2.453c2.867-1.644 5.14-3.86 6.828-6.64 1.688-2.782 2.532-5.899 2.532-9.36m15.859-18.876h-5.203q2.876 3.691 4.516 9.094 1.64 5.409 1.64 11.422c0 6.387-1.57 12.265-4.719 17.64q-4.717 8.064-12.78 12.922c-5.376 3.243-11.438 4.86-18.188 4.86q-7.652.002-14.157-2.797a37.3 37.3 0 0 1-11.484-7.735 35.2 35.2 0 0 1-7.719-11.343q-2.749-6.434-2.75-13.547 0-6.013 1.719-11.422 1.706-5.403 4.578-9.094H969.89v-19h93.672ZM1048.514 557.412q7.66 5.062 12.172 13.265 4.514 8.203 4.516 19.969 0 11.204-4.782 19.484-4.793 8.267-13.062 12.86-8.278 4.58-18.672 4.578-10.108 0-18.453-4.64-8.344-4.654-13.266-13.063-4.922-8.42-4.922-19.36.002-11.074 4.657-19.078c3.093-5.332 7.336-9.41 12.718-12.234q8.063-4.249 18.313-4.25 2.05 0 4.234.14 2.19.141 2.469.141v53.61q6.704-1.514 10.672-6.36 3.954-4.856 3.953-12.25 0-6.42-2.531-11a22.7 22.7 0 0 0-6.766-7.594Zm-40.89 33.234q0 6.704 3.359 11.14 3.346 4.44 9.36 6.36v-34.047c-4.282 1-7.47 3.055-9.563 6.156q-3.154 4.642-3.156 10.39M1041.545 549.482V530.2q2.052.002 4.313-1.157 2.25-1.169 3.687-3.968 1.44-2.812 1.579-7.875.002-5.327-2.047-7.86-2.06-2.53-4.532-2.531-3.14.002-4.5 3.016-1.372 3.001-2.046 7.718a287 287 0 0 1-1.641 9.985 43.7 43.7 0 0 1-3.078 9.984q-2.122 4.723-6.36 7.734-4.248 3-11.625 3-6.434.002-11.562-3.546-5.123-3.562-8.125-10.047-3.014-6.497-3.016-15.39 0-13.407 6.36-21.33 6.361-7.932 16.89-8.765v19.016q-3.841.142-6.36 2.266-2.53 2.11-2.53 8.53 0 4.113 1.437 7.048 1.426 2.939 4.719 2.937c2.094 0 3.64-1.023 4.64-3.078q1.501-3.076 2.329-7.86a596 596 0 0 1 1.843-10.25c.688-3.644 1.696-7.062 3.016-10.25q1.969-4.793 5.813-7.874 3.83-3.077 10.515-3.078 8.344.001 13.547 4.25 5.19 4.236 7.656 11.343 2.468 7.113 2.469 16 0 9.562-3.078 16.547-3.075 6.973-8.344 10.735-5.264 3.75-11.969 4.03M1037.858 426.675l9.437-14.765q8.063 5.064 12.985 13.14 4.922 8.062 4.922 19.547c0 7.2-1.618 13.606-4.844 19.219q-4.858 8.408-13.203 13.125-8.344 4.72-18.469 4.719c-6.832 0-13.004-1.57-18.516-4.72q-8.28-4.716-13.203-13.124-4.922-8.42-4.922-19.219 0-11.624 5.063-19.75 5.048-8.139 13.25-13.078l9.312 14.906a24.1 24.1 0 0 0-7.312 6.719q-2.953 4.094-2.953 10.516 0 8.345 5.344 13.468 5.33 5.126 13.937 5.125c5.75 0 10.43-1.707 14.031-5.125 3.594-3.414 5.39-7.906 5.39-13.468 0-4.282-.976-7.786-2.937-10.516a24 24 0 0 0-7.312-6.719M1009.952 373.079q0 5.188 2.53 9.36 2.532 4.171 6.845 6.64c2.867 1.637 6.03 2.453 9.5 2.453q5.202.001 9.515-2.453c2.867-1.645 5.14-3.86 6.828-6.64q2.532-4.171 2.532-9.36 0-5.468-2.532-9.781a18.8 18.8 0 0 0-6.828-6.829q-4.313-2.53-9.515-2.53c-3.47 0-6.633.843-9.5 2.53q-4.313 2.519-6.844 6.907-2.531 4.377-2.531 9.703m53.609-18.875h-5.203q2.876 3.69 4.516 9.094 1.64 5.409 1.64 11.421c0 6.387-1.57 12.266-4.719 17.641q-4.717 8.064-12.78 12.922-8.063 4.862-18.188 4.86c-5.102 0-9.82-.93-14.157-2.798a37.3 37.3 0 0 1-11.484-7.734 35.2 35.2 0 0 1-7.719-11.344q-2.749-6.433-2.75-13.547 0-6.012 1.719-11.421 1.706-5.403 4.578-9.094h-5.61v-19h70.157ZM1063.561 308.402v19.141h-70.156v-19.016h9.578q-4.78-3.544-7.656-8.671-2.873-5.14-2.875-11.704h19.14q.002 10.406 5.407 15.329 5.408 4.92 14.562 4.921ZM1009.405 250.828q0 4.923 2.531 9.031a19.3 19.3 0 0 0 6.703 6.563q4.172 2.453 9.235 2.453 5.189 0 9.359-2.453 4.173-2.468 6.64-6.563 2.455-4.108 2.454-9.031 0-5.468-2.453-9.703-2.468-4.249-6.641-6.703-4.17-2.469-9.36-2.47-5.062.001-9.234 2.47-4.171 2.453-6.703 6.765-2.53 4.314-2.531 9.64m79.86.14q0 11.752-4.313 20.094-4.302 8.345-12.094 13.813l-9.297-13.672q4.371-3.14 7.031-8.203 2.672-5.062 2.672-11.766 0-8.888-3.687-13.937c-2.461-3.375-6.196-5.063-11.22-5.063h-1.905q6.421 7.66 6.422 20.234 0 9.3-4.641 17.297-4.655 8.004-12.578 12.797-7.937 4.781-17.922 4.781-7.39.001-13.813-2.796-6.42-2.81-11.28-7.672a35.9 35.9 0 0 1-7.595-11.141c-1.82-4.195-2.734-8.617-2.734-13.266q0-6.966 1.922-12.093 1.909-5.14 4.375-8.141h-5.203v-18.875h63.312c6.024 0 11.489 1.46 16.407 4.375q7.388 4.376 11.765 12.719 4.373 8.344 4.375 20.515M1009.952 170.01c0 3.462.843 6.579 2.53 9.36q2.532 4.173 6.845 6.64c2.867 1.638 6.03 2.454 9.5 2.454q5.202.001 9.515-2.453c2.867-1.645 5.14-3.86 6.828-6.64q2.532-4.172 2.532-9.36 0-5.468-2.532-9.781a18.8 18.8 0 0 0-6.828-6.828q-4.313-2.532-9.515-2.532c-3.47 0-6.633.844-9.5 2.532q-4.313 2.518-6.844 6.906-2.531 4.377-2.531 9.703m53.609-18.874h-5.203q2.876 3.69 4.516 9.094 1.64 5.409 1.64 11.422c0 6.386-1.57 12.265-4.719 17.64q-4.717 8.064-12.78 12.922-8.063 4.861-18.188 4.86-7.652.002-14.157-2.797a37.3 37.3 0 0 1-11.484-7.735 35.2 35.2 0 0 1-7.719-11.344q-2.749-6.433-2.75-13.546 0-6.013 1.719-11.422 1.706-5.403 4.578-9.094h-5.61v-19h70.157ZM1063.561 105.334v19.141h-70.156v-19.016h9.578q-4.78-3.544-7.656-8.671-2.873-5.14-2.875-11.704h19.14q.002 10.406 5.407 15.329 5.408 4.92 14.562 4.921ZM155.203 560.455q-23.204 0-41.61 11.203-18.391 11.205-29.202 30.406-10.799 19.19-10.797 42.797-.001 24 10.797 43.407 10.81 19.393 29.812 30.593 18.998 11.19 43 11.188 25.2 0 44.203-12.188 18.998-12.198 30.594-32.203l48.406 33.594q-19.61 32.409-50.218 50.61Q199.59 788.048 158 788.048q-31.594-.001-58.594-11-27.001-10.997-47-30.39-20.003-19.405-31-45.595-11.002-26.202-11-56.203-.002-29.998 11-55.797 10.998-25.81 30.797-45.203 19.794-19.405 46.39-30.203c17.739-7.195 37.009-10.797 57.813-10.797q40.388.001 71.782 17 31.404 17.003 51.015 51.391l-49.203 34q-12.001-19.998-30.406-32.39-18.393-12.406-44.39-12.407M400.004 787.658q-52.003.001-80-24.203-28.001-24.2-30.813-66.594h62q.811 10.393 5.407 20c3.062 6.399 8.257 11.594 15.593 15.594q10.997 6 29.407 6 23.59 0 35.39-8.39 11.813-8.405 11.813-21.204-.001-10.811-8-16.812-8.004-6-21.203-9.797-13.207-3.795-28.797-7a603 603 0 0 1-33.406-9.188q-17.004-5.201-31.407-14.406-14.391-9.199-23.187-24.797-8.799-15.608-8.797-40 0-24 12-42.797c8-12.539 19.664-22.476 35-29.812q22.997-10.999 55.797-11 49.998.002 77.39 24.812 27.403 24.798 30.204 65.188h-62.391q-.813-16.389-11.219-27.984-10.394-11.61-35.594-11.61-18.393.002-29.796 7.203-11.391 7.19-11.391 20.797c0 7.73 2.726 13.867 8.187 18.406 5.47 4.532 12.602 8.133 21.407 10.797q13.2 4.003 28.797 7.594 16.793 3.597 34.203 8.594c11.601 3.336 22.203 7.871 31.797 13.61 9.601 5.73 17.406 13.398 23.406 23q9 14.39 9 37.593c0 16.531-4.274 31.336-12.813 44.406q-12.797 19.594-37.39 30.797c-16.399 7.469-36.594 11.203-60.594 11.203M678 782.455h-76l-94.798-274H574l67.594 207.203 67.61-207.203h64Zm0 0"/><path fill="none" d="M408.781 104.195h56.196M97.188 173.195h367.855M97.188 242.348h367.855M97.188 311.5h587.855M97.188 380.648h587.855M107.531 449.8h571.512M104.816 106.008v343.926M225.008 110.336V456.09M344.45 110.336V456.09M465.035 104.05l-1.144 352.044M685.04 274.836v175.102M105.438 104.047H366.03M40.945 44.957v418.566M45.082 44.953h475.832M523.957 45.55l221.316 221.321M745.445 266.617V468.77M515.016 285.43h231.183M515.012 59.527v231.184"/><path d="M493.762 66.204H62.195v397.319c.218 6.227-2.104 10.906-6.224 15.026s-8.799 6.224-15.026 6.224-10.906-2.104-15.026-6.224-6.442-8.799-6.224-15.026V44.957c-.218-6.227 2.104-10.906 6.224-15.026s8.799-6.224 15.026-6.224c.594 0 1.086.017 1.666.063l.387.031.387-.031c.59-.049 1.091-.068 1.697-.066h475.832c1.957-.021 3.544.19 5.353.679l.312.084.269.03c4.762.535 8.626 2.308 12.135 6.029l218.779 218.782.257.176c5.785 3.965 8.983 9.65 8.676 17.133v13.17l.144.564c.44 1.721.61 3.225.61 5.079s-.17 3.357-.61 5.08l-.144.563V468.77c.218 6.227-2.104 10.906-6.224 15.026s-8.799 6.224-15.026 6.224-10.906-2.104-15.026-6.224-6.442-8.799-6.224-15.026V306.68h-30.906v143.257a8.25 8.25 0 0 1-11.423 7.618 8.2 8.2 0 0 1-2.823.496H107.532q-.487 0-.958-.055a8.25 8.25 0 0 1-10.008-8.062V106.008c0-1.235.271-2.406.757-3.457a8.25 8.25 0 0 1 8.115-6.755h260.593a8.25 8.25 0 0 1 0 16.5h-13.332v52.649h103.888l.171-52.5h-47.977a8.25 8.25 0 0 1 0-16.5h56.195a8.25 8.25 0 0 1 8.249 8.133h.06l-.647 199.172h30.69a26 26 0 0 1-2.617-2.106c-4.039-3.679-6.462-7.875-6.841-13.586h-.108Zm42.5 21.703V264.18h176.269Zm-183.563 93.538v52.653h103.663l.171-52.653Zm0 69.153v52.652h103.439l.171-52.652Zm0 69.152v52.649h103.214l.171-52.649Zm324.09 52.649V319.75H472.584l-.171 52.649Zm-324.09 16.5v52.652h102.989l.171-52.652Zm324.09 52.652v-52.652h-204.43l-.171 52.652ZM233.258 112.296v52.649h102.941v-52.649Zm0 69.149v52.653h102.941v-52.653Zm0 69.153v52.652h102.941v-52.652Zm0 69.152v52.649h102.941V319.75Zm0 69.149v52.652h102.941v-52.652ZM113.066 112.296v52.649h103.692v-52.649Zm0 69.149v52.653h103.692v-52.653Zm0 69.153v52.652h103.692v-52.652Zm0 69.152v52.649h103.692V319.75Zm0 69.149v52.652h103.692v-52.652Z"/></svg>